@startuml crearProfesor

skinparam linetype polyline

state crearProfesor as "crearProfesor()" {

    state " " as SolicitandoDatos
    state " " as CreandoProfesor

    [*] -[#green]-> SolicitandoDatos 
    note on link
    <b>Administrador</b> solicita crear profesor nuevo
    end note    
    
    SolicitandoDatos -[#green]-> CreandoProfesor
    note on link
    <b>Sistema</b> presenta solicitud de datos mínimos del profesor
    • Código del profesor (obligatorio)
    • Nombres del profesor (obligatorio)
    • Apellidos del profesor (obligatorio)
    • Permite solicitar crear profesor
    • Permite solicitar cancelar creación
    end note
    
    CreandoProfesor -[#green]-> [*]
    note on link
    <b>Administrador</b> proporciona datos mínimos
    <b>Sistema</b> crea profesor y transfiere a edición
    end note
}

crearProfesor -[#green]-> PROFESOR_ABIERTO
note on link
editarProfesor(profesorNuevo)
end note

crearProfesor -[#blue]-> PROFESORES_ABIERTO
note on link
cancelar creación
end note

@enduml